<svg width="712" height="330" viewBox="0 0 712 330" fill="none" xmlns="http://www.w3.org/2000/svg">
<rect width="712" height="330" fill="white"/>
<path fill-rule="evenodd" clip-rule="evenodd" d="M101.677 18.5277C87.6174 23.1976 63.74 31.0717 48.6157 36.0245C33.4914 40.9773 19.4973 45.8472 17.5182 46.8471C15.3284 47.9523 13.2044 49.8133 12.0959 51.5976L10.2725 54.5321L10.044 111.501C9.89834 147.692 10.1183 171.863 10.6466 177.771C12.6614 200.321 19.605 222.96 30.0584 241.057C42.9401 263.36 65.6486 285.896 91.2193 301.755C107.471 311.834 124.969 320 130.316 320C135.814 320 159.732 307.64 176.427 296.17C212.158 271.622 234.845 240.714 244.171 203.878C248.395 187.192 248.456 185.962 248.461 117.623L248.465 54.374L246.704 51.7588C245.736 50.3202 243.858 48.412 242.532 47.5175C240.049 45.8433 220.338 39.0876 183.785 27.3823C172.282 23.699 155.445 18.2726 146.37 15.325C137.295 12.3765 129.277 9.98074 128.554 10.0001C127.831 10.0203 115.736 13.8577 101.677 18.5277ZM101.677 39.8201C87.1913 44.6582 65.0568 51.9301 52.4888 55.9807L29.6377 63.3448L29.4061 117.845C29.1544 176.97 29.3349 180.629 33.2652 196.285C36.1561 207.797 39.7673 217.333 45.1292 227.611C58.6678 253.562 84.5553 277.121 118.662 294.527L129.79 300.206L137.81 296.213C158.15 286.085 175.692 273.566 190.757 258.425C211.585 237.493 221.708 218.044 228.101 186.685C229.082 181.871 229.347 170.785 229.64 122.229L229.993 63.5867L214.248 58.5098C205.588 55.7172 182.817 48.3616 163.645 42.1648C144.474 35.9679 128.614 30.926 128.401 30.9608C128.188 30.9957 116.162 34.982 101.677 39.8201ZM293.78 113.478V155.761L317.793 155.527L341.806 155.294L346.223 153.123C351.794 150.386 357.142 144.541 358.888 139.281C360.606 134.106 360.123 125.547 357.864 121.137C355.952 117.404 350.783 112.518 348.011 111.822C346.052 111.33 346.058 111.317 349.483 108.3C353.872 104.434 355.781 99.6725 355.656 92.899C355.487 83.7025 349.963 76.1571 340.923 72.7722C337.061 71.3275 334.934 71.1965 315.246 71.1965H293.78V113.478ZM534.343 113.439L534.467 155.681H542.903H551.338V147.307V138.933L553.869 136.479L556.399 134.025L564.386 144.853L572.374 155.681H582.254C587.688 155.681 592.317 155.497 592.542 155.273C592.766 155.049 587.425 147.463 580.673 138.415C573.922 129.368 568.481 121.744 568.583 121.474C568.684 121.204 574.099 115.275 580.615 108.298L592.464 95.6118L582.552 95.3878L572.64 95.1638L569.154 98.8765C567.237 100.919 562.444 106.029 558.503 110.233L551.338 117.877V94.5367V71.1965H542.779H534.219L534.343 113.439ZM62.1288 75.1161C58.9909 76.04 56.3758 78.935 55.6097 82.3337C55.2681 83.8529 54.8614 116.934 54.7065 155.849L54.4253 226.602L56.5733 230.979C58.6616 235.234 61.8987 237.841 65.094 237.841C65.8159 237.841 66.4077 238.928 66.7083 240.808C67.2621 244.276 69.7866 248.265 72.8781 250.558C74.6256 251.855 76.4575 252.234 82.02 252.452C85.8466 252.602 90.186 252.498 91.6639 252.22C95.3898 251.521 99.4263 247.718 102.127 242.365L104.41 237.841H129.032H153.654L155.306 241.242C157.525 245.814 161.52 250.242 164.577 251.52C168.276 253.066 181.272 252.914 184.706 251.284C188.051 249.695 190.909 245.485 191.597 241.135C191.999 238.582 192.452 237.841 193.605 237.841C195.809 237.841 199.274 235.842 200.593 233.811C203.229 229.752 206.619 214.048 206.632 205.842L206.636 202.909L198.333 203.129L190.031 203.349L189.06 210.712C188.526 214.762 187.898 218.861 187.665 219.82L187.242 221.564H129.548H71.854V155.677V89.7885L130.144 89.9877L188.433 90.1862L189.108 96.9682L189.782 103.75H198.136H206.489L206.131 98.9059C205.44 89.5909 204.407 81.6222 203.623 79.5589C203.189 78.4149 201.874 76.85 200.702 76.0811C198.695 74.765 194.688 74.6766 131.533 74.5519C93.6973 74.4774 63.4642 74.7232 62.1288 75.1161ZM311.378 95.418L311.596 104.913L318.568 105.152C322.402 105.284 327.019 105.176 328.827 104.912C338.134 103.553 341.202 92.1766 333.525 87.4935C331.308 86.1402 329.624 85.9286 321.061 85.9263L311.161 85.9232L311.378 95.418ZM425.126 95.2956C421.066 96.6179 419.258 97.8053 415.382 101.691C412.111 104.972 410.234 107.613 409.377 110.145L408.129 113.826H416.436H424.743L426.079 111.562C427.783 108.677 433.266 106.468 437.158 107.1C442.485 107.965 445.216 111.021 445.216 116.116V118.305L434.178 118.651C421.915 119.036 418.483 120.026 413.138 124.722C409.039 128.324 407.257 132.247 407.278 137.629C407.299 143.383 409.154 147.425 413.676 151.579C418.525 156.035 422.022 157.403 428.565 157.408C434.969 157.412 438.419 156.145 442.807 152.179L445.991 149.3V152.491V155.681H453.737H461.483V134.507C461.483 110.094 461.011 107.275 456.008 101.844C449.279 94.5398 436.056 91.7364 425.126 95.2956ZM494.404 95.5165C490.181 97.5092 487.55 99.9608 486.399 102.976C485.756 104.659 485.585 104.277 485.09 100.069L484.522 95.2242H477.263H470.004V125.453V155.681H478.089H486.172L486.416 136.498C486.639 118.85 486.784 117.1 488.234 114.629C490.358 111.012 494.17 108.909 498.723 108.843C502.998 108.78 505.915 110.55 508.347 114.683C509.763 117.088 509.917 118.962 510.139 136.498L510.382 155.681H518.521H526.66L526.39 134.172C526.134 113.703 526.032 112.441 524.289 108.059C521.791 101.786 516.481 96.5194 511.013 94.8948C504.997 93.1075 499.038 93.3307 494.404 95.5165ZM610.521 95.2095C604.81 97.0813 599.417 101.588 596.228 107.149C592.511 113.635 592.669 113.826 601.719 113.826H609.496L612.377 110.797C619.05 103.777 630.335 107.019 630.345 115.958L630.348 118.477H621.134C613.992 118.477 610.749 118.839 606.706 120.088C588.738 125.642 587.584 147.058 604.786 155.719C612.292 159.498 623.5 157.504 629.291 151.36L631.898 148.595V152.138V155.681H639.3H646.703L646.465 133.397C646.236 111.857 646.167 110.978 644.388 107.039C640.778 99.0485 632.847 94.4282 621.921 93.9516C616.746 93.726 614.182 94.0089 610.521 95.2095ZM667.689 95.0917C658.86 98.2525 654.361 104.268 654.361 112.916C654.361 118.949 656.327 122.947 660.729 125.861C663.464 127.673 672.445 130.98 680.578 133.171C686.693 134.819 687.935 140.727 682.632 142.943C676.578 145.475 669.731 143.308 668.48 138.465L667.822 135.916L660.317 135.695L652.812 135.473L652.817 138.02C652.829 145.522 658.759 153.347 666.421 155.973C679.366 160.411 694.035 156.714 699.648 147.6C701.792 144.119 702 143.19 702 137.075C702 130.917 701.822 130.135 699.822 127.511C697.039 123.861 692.499 121.587 681.866 118.513C672.475 115.799 670.628 114.634 670.628 111.425C670.628 108.471 673.18 106.851 677.831 106.851C680.955 106.851 681.976 107.234 683.856 109.116C685.102 110.363 686.12 111.932 686.12 112.604C686.12 113.636 687.335 113.826 693.928 113.826H701.736L701.219 111.307C699.788 104.325 695.228 98.7501 688.519 95.7807C683.394 93.5128 673.055 93.1703 667.689 95.0917ZM397.191 95.6761C394.847 96.2946 390.926 98.2021 388.476 99.9143L384.022 103.029V99.126V95.2242H375.889H367.755V125.453V155.681H375.889H384.022V138.992C384.022 120.577 384.378 118.722 388.589 115.177C391.429 112.785 395.421 111.511 400.095 111.506L403.387 111.501V102.975C403.387 93.4547 403.793 93.933 397.191 95.6761ZM125.302 118.13V127.084L122.919 127.914C121.609 128.372 118.911 129.569 116.924 130.576L113.312 132.406L108.077 127.208L102.842 122.01L98.1893 126.617L93.537 131.223L99.032 136.758L104.526 142.293L103.121 146.252L101.716 150.211L92.4014 150.427L83.0859 150.643L83.2478 156.36C83.3369 159.504 83.5398 162.207 83.6994 162.366C83.8582 162.526 87.9264 162.765 92.7383 162.897L101.488 163.138L103.71 168.035L105.931 172.931L102.264 176.126C100.246 177.884 97.372 180.435 95.8755 181.796L93.1558 184.272L97.3899 188.578C99.7183 190.947 102.15 192.885 102.794 192.885C103.437 192.885 106.416 190.448 109.414 187.468L114.864 182.052L120.071 184.174L125.278 186.297L125.291 195.435L125.302 204.575L131.693 204.349L138.083 204.124L137.82 195.211L137.557 186.297L142.677 183.854L147.798 181.412L154.071 187.614L160.345 193.816L164.962 189.281L169.58 184.747L162.989 178.545L156.399 172.342L158.47 167.952C160.528 163.592 160.569 163.559 164.597 163.056C166.827 162.777 171.01 162.635 173.894 162.741L179.138 162.934L179.362 156.594L179.588 150.256H170.017H160.446L158.933 146.603L157.421 142.952L163.48 137.159L169.54 131.367L164.827 126.666L160.113 121.965L154.719 127.488L149.324 133.011L144.866 130.812C142.413 129.603 139.797 128.437 139.052 128.221C137.857 127.873 137.696 126.716 137.696 118.501V109.176H131.499H125.302V118.13ZM189.595 152.581V194.436H198.116H206.636V152.581V110.726H198.116H189.595V152.581ZM311.723 119.766C311.653 119.836 311.703 124.457 311.833 130.036L312.069 140.179H322.896C334.783 140.179 338.05 139.396 340.266 136.011C343.395 131.233 342.082 123.537 337.758 121.299C336.14 120.463 332.253 120.074 323.687 119.891C317.176 119.753 311.793 119.696 311.723 119.766ZM434.759 130.488C434.333 130.633 432.638 130.978 430.993 131.253C424.992 132.262 422.454 137.625 426.204 141.377C429.864 145.04 440.121 143.174 443.338 138.261C444.022 137.217 444.77 134.955 445.001 133.233L445.42 130.103L440.477 130.164C437.759 130.198 435.185 130.344 434.759 130.488ZM619.891 130.488C619.465 130.633 617.77 130.978 616.125 131.253C610.124 132.262 607.586 137.625 611.336 141.377C614.996 145.04 625.253 143.174 628.47 138.261C629.154 137.217 629.902 134.955 630.133 133.233L630.552 130.103L625.609 130.164C622.891 130.198 620.317 130.344 619.891 130.488ZM123.908 142.25C117.534 145.393 113.908 153 115.416 160.07C116.973 167.373 126.05 173.588 133.175 172.228C140.212 170.884 144.663 166.42 146.31 159.053C147.091 155.562 147.032 154.46 145.899 151.493C144.126 146.848 142.032 144.323 138.428 142.483C134.701 140.581 127.527 140.465 123.908 142.25ZM293.889 174.107C293.685 174.438 293.538 193.621 293.562 216.737L293.604 258.768H302.794H311.983V245.764V232.76L315.344 228.939L318.704 225.118L322.122 229.831C324.002 232.423 329.373 239.99 334.06 246.646L342.581 258.749L354.071 258.758L365.562 258.768L363.301 255.861C361.548 253.608 343.325 227.778 333.582 213.736L332.184 211.722L348.41 193.196C357.335 183.008 364.641 174.41 364.647 174.09C364.652 173.769 360.014 173.508 354.34 173.508H344.023L330.521 189.463C323.094 198.238 315.898 206.696 314.53 208.259L312.042 211.1L312.013 192.304L311.983 173.508H303.121C298.246 173.508 294.092 173.778 293.889 174.107ZM369.614 176.144C367.339 178.42 366.981 179.293 366.981 182.559C366.981 184.731 367.495 187.075 368.19 188.067C369.789 190.352 373.305 192.11 376.276 192.11C383.409 192.11 387.764 184.649 384.414 178.167C382.696 174.843 380.293 173.508 376.026 173.508C372.762 173.508 371.89 173.867 369.614 176.144ZM401.623 182.509C401.315 182.816 401.064 186.497 401.064 190.69V198.311H396.029H390.994V205.674V213.038H395.961H400.928L401.19 229.121L401.451 245.204L403.755 249.366C406.467 254.265 409.685 256.933 414.708 258.446C418.489 259.585 426.971 259.9 431.177 259.059L433.597 258.574V251.308V244.041H427.737C424.513 244.041 421.218 243.689 420.412 243.257C418.088 242.013 417.34 237.534 417.335 224.858L417.33 213.038H425.077H432.823V205.674V198.311H425.077H417.33L417.329 190.366L417.327 182.422L409.755 182.185C405.589 182.055 401.93 182.201 401.623 182.509ZM457.109 197.539C451.193 199.47 445.347 204.522 442.566 210.107C439.218 216.83 439.291 216.913 448.682 216.913H456.796L457.938 214.703C460.18 210.365 465.768 208.379 471.432 209.905C475.14 210.904 476.931 213.152 477.519 217.547L477.924 220.565L467.186 220.989C454.734 221.479 450.744 222.643 445.39 227.347C443.468 229.036 441.256 231.826 440.474 233.547C436.477 242.353 441.309 253.657 451.124 258.463C454.619 260.173 456.499 260.573 460.981 260.559C467.483 260.539 470.901 259.279 475.341 255.265L478.525 252.387V255.578V258.768H486.323H494.121L493.875 235.709L493.63 212.65L491.341 208.517C488.612 203.586 485.802 201.068 480.074 198.418C474.189 195.695 463.957 195.305 457.109 197.539ZM367.755 228.54V258.768H376.082L384.41 258.769L384.198 228.54L383.987 198.311H375.871H367.755V228.54ZM463.246 233.943C457.606 235.284 454.936 238.93 456.896 242.613C458.447 245.526 460.053 246.315 464.476 246.342C471.678 246.384 477.75 241.269 477.75 235.159C477.75 233.213 477.68 233.191 471.747 233.269C468.445 233.313 464.62 233.616 463.246 233.943Z" fill="black"/>
</svg>
