<svg width="692" height="310" viewBox="0 0 692 310" fill="none" xmlns="http://www.w3.org/2000/svg">
<path fill-rule="evenodd" clip-rule="evenodd" d="M91.6766 8.52766C77.6174 13.1976 53.74 21.0717 38.6157 26.0245C23.4914 30.9773 9.49731 35.8472 7.51818 36.8471C5.32836 37.9523 3.20437 39.8133 2.09591 41.5976L0.272475 44.5321L0.0439667 101.501C-0.10166 137.692 0.118329 161.863 0.646614 167.771C2.66138 190.321 9.60499 212.96 20.0584 231.057C32.9401 253.36 55.6486 275.896 81.2193 291.755C97.4714 301.834 114.969 310 120.316 310C125.814 310 149.732 297.64 166.427 286.17C202.158 261.622 224.845 230.714 234.171 193.878C238.395 177.192 238.456 175.962 238.461 107.623L238.465 44.374L236.704 41.7588C235.736 40.3202 233.858 38.412 232.532 37.5175C230.049 35.8433 210.338 29.0876 173.785 17.3823C162.282 13.699 145.445 8.27264 136.37 5.32497C127.295 2.37654 119.277 -0.0192605 118.554 0.00011672C117.831 0.020269 105.736 3.85774 91.6766 8.52766ZM91.6766 29.8201C77.1913 34.6582 55.0568 41.9301 42.4888 45.9807L19.6377 53.3448L19.4061 107.845C19.1544 166.97 19.3349 170.629 23.2652 186.285C26.1561 197.797 29.7673 207.333 35.1292 217.611C48.6678 243.562 74.5553 267.121 108.662 284.527L119.79 290.206L127.81 286.213C148.15 276.085 165.692 263.566 180.757 248.425C201.585 227.493 211.708 208.044 218.101 176.685C219.082 171.871 219.347 160.785 219.64 112.229L219.993 53.5867L204.248 48.5098C195.588 45.7172 172.817 38.3616 153.645 32.1648C134.474 25.9679 118.614 20.926 118.401 20.9608C118.188 20.9957 106.162 24.982 91.6766 29.8201ZM283.78 103.478V145.761L307.793 145.527L331.806 145.294L336.223 143.123C341.794 140.386 347.142 134.541 348.888 129.281C350.606 124.106 350.123 115.547 347.864 111.137C345.952 107.404 340.783 102.518 338.011 101.822C336.052 101.33 336.058 101.317 339.483 98.3C343.872 94.4338 345.781 89.6725 345.656 82.899C345.487 73.7025 339.963 66.1571 330.923 62.7722C327.061 61.3275 324.934 61.1965 305.246 61.1965H283.78V103.478ZM524.343 103.439L524.467 145.681H532.903H541.338V137.307V128.933L543.869 126.479L546.399 124.025L554.386 134.853L562.374 145.681H572.254C577.688 145.681 582.317 145.497 582.542 145.273C582.766 145.049 577.425 137.463 570.673 128.415C563.922 119.368 558.481 111.744 558.583 111.474C558.684 111.204 564.099 105.275 570.615 98.2977L582.464 85.6118L572.552 85.3878L562.64 85.1638L559.154 88.8765C557.237 90.9188 552.444 96.029 548.503 100.233L541.338 107.877V84.5367V61.1965H532.779H524.219L524.343 103.439ZM52.1288 65.1161C48.9909 66.04 46.3758 68.935 45.6097 72.3337C45.2681 73.8529 44.8614 106.934 44.7065 145.849L44.4253 216.602L46.5733 220.979C48.6616 225.234 51.8987 227.841 55.094 227.841C55.8159 227.841 56.4077 228.928 56.7083 230.808C57.2621 234.276 59.7866 238.265 62.8781 240.558C64.6256 241.855 66.4575 242.234 72.02 242.452C75.8466 242.602 80.186 242.498 81.6639 242.22C85.3898 241.521 89.4263 237.718 92.1274 232.365L94.4102 227.841H119.032H143.654L145.306 231.242C147.525 235.814 151.52 240.242 154.577 241.52C158.276 243.066 171.272 242.914 174.706 241.284C178.051 239.695 180.909 235.485 181.597 231.135C181.999 228.582 182.452 227.841 183.605 227.841C185.809 227.841 189.274 225.842 190.593 223.811C193.229 219.752 196.619 204.048 196.632 195.842L196.636 192.909L188.333 193.129L180.031 193.349L179.06 200.712C178.526 204.762 177.898 208.861 177.665 209.82L177.242 211.564H119.548H61.854V145.677V79.7885L120.144 79.9877L178.433 80.1862L179.108 86.9682L179.782 93.7502H188.136H196.489L196.131 88.9059C195.44 79.5909 194.407 71.6222 193.623 69.5589C193.189 68.4149 191.874 66.85 190.702 66.0811C188.695 64.765 184.688 64.6766 121.533 64.5519C83.6973 64.4774 53.4642 64.7232 52.1288 65.1161ZM301.378 85.418L301.596 94.9129L308.568 95.1524C312.402 95.2841 317.019 95.1756 318.827 94.9121C328.134 93.5526 331.202 82.1766 323.525 77.4935C321.308 76.1402 319.624 75.9286 311.061 75.9263L301.161 75.9232L301.378 85.418ZM415.126 85.2956C411.066 86.6179 409.258 87.8053 405.382 91.6908C402.111 94.9718 400.234 97.6133 399.377 100.145L398.129 103.826H406.436H414.743L416.079 101.562C417.783 98.6767 423.266 96.4685 427.158 97.1001C432.485 97.9651 435.216 101.021 435.216 106.116V108.305L424.178 108.651C411.915 109.036 408.483 110.026 403.138 114.722C399.039 118.324 397.257 122.247 397.278 127.629C397.299 133.383 399.154 137.425 403.676 141.579C408.525 146.035 412.022 147.403 418.565 147.408C424.969 147.412 428.419 146.145 432.807 142.179L435.991 139.3V142.491V145.681H443.737H451.483V124.507C451.483 100.094 451.011 97.2753 446.008 91.8435C439.279 84.5398 426.056 81.7364 415.126 85.2956ZM484.404 85.5165C480.181 87.5092 477.55 89.9608 476.399 92.9759C475.756 94.6586 475.585 94.2765 475.09 90.0686L474.522 85.2242H467.263H460.004V115.453V145.681H468.089H476.172L476.416 126.498C476.639 108.85 476.784 107.1 478.234 104.629C480.358 101.012 484.17 98.9092 488.723 98.8426C492.998 98.7798 495.915 100.55 498.347 104.683C499.763 107.088 499.917 108.962 500.139 126.498L500.382 145.681H508.521H516.66L516.39 124.172C516.134 103.703 516.032 102.441 514.289 98.0589C511.791 91.7861 506.481 86.5194 501.013 84.8948C494.997 83.1075 489.038 83.3307 484.404 85.5165ZM600.521 85.2095C594.81 87.0813 589.417 91.5877 586.228 97.149C582.511 103.635 582.669 103.826 591.719 103.826H599.496L602.377 100.797C609.05 93.7766 620.335 97.0188 620.345 105.958L620.348 108.477H611.134C603.992 108.477 600.749 108.839 596.706 110.088C578.738 115.642 577.584 137.058 594.786 145.719C602.292 149.498 613.5 147.504 619.291 141.36L621.898 138.595V142.138V145.681H629.3H636.703L636.465 123.397C636.236 101.857 636.167 100.978 634.388 97.0389C630.778 89.0485 622.847 84.4282 611.921 83.9516C606.746 83.726 604.182 84.0089 600.521 85.2095ZM657.689 85.0917C648.86 88.2525 644.361 94.268 644.361 102.916C644.361 108.949 646.327 112.947 650.729 115.861C653.464 117.673 662.445 120.98 670.578 123.171C676.693 124.819 677.935 130.727 672.632 132.943C666.578 135.475 659.731 133.308 658.48 128.465L657.822 125.916L650.317 125.695L642.812 125.473L642.817 128.02C642.829 135.522 648.759 143.347 656.421 145.973C669.366 150.411 684.035 146.714 689.648 137.6C691.792 134.119 692 133.19 692 127.075C692 120.917 691.822 120.135 689.822 117.511C687.039 113.861 682.499 111.587 671.866 108.513C662.475 105.799 660.628 104.634 660.628 101.425C660.628 98.4713 663.18 96.8506 667.831 96.8506C670.955 96.8506 671.976 97.2342 673.856 99.1162C675.102 100.363 676.12 101.932 676.12 102.604C676.12 103.636 677.335 103.826 683.928 103.826H691.736L691.219 101.307C689.788 94.3253 685.228 88.7501 678.519 85.7807C673.394 83.5128 663.055 83.1703 657.689 85.0917ZM387.191 85.6761C384.847 86.2946 380.926 88.2021 378.476 89.9143L374.022 93.0286V89.126V85.2242H365.889H357.755V115.453V145.681H365.889H374.022V128.992C374.022 110.577 374.378 108.722 378.589 105.177C381.429 102.785 385.421 101.511 390.095 101.506L393.387 101.501V92.9751C393.387 83.4547 393.793 83.933 387.191 85.6761ZM115.302 108.13V117.084L112.919 117.914C111.609 118.372 108.911 119.569 106.924 120.576L103.312 122.406L98.0772 117.208L92.8424 112.01L88.1893 116.617L83.537 121.223L89.032 126.758L94.5264 132.293L93.1212 136.252L91.7161 140.211L82.4014 140.427L73.0859 140.643L73.2478 146.36C73.3369 149.504 73.5398 152.207 73.6994 152.366C73.8582 152.526 77.9264 152.765 82.7383 152.897L91.4883 153.138L93.7099 158.035L95.9307 162.931L92.2637 166.126C90.2459 167.884 87.372 170.435 85.8755 171.796L83.1558 174.272L87.3899 178.578C89.7183 180.947 92.1498 182.885 92.7936 182.885C93.4373 182.885 96.4164 180.448 99.4141 177.468L104.864 172.052L110.071 174.174L115.278 176.297L115.291 185.435L115.302 194.575L121.693 194.349L128.083 194.124L127.82 185.211L127.557 176.297L132.677 173.854L137.798 171.412L144.071 177.614L150.345 183.816L154.962 179.281L159.58 174.747L152.989 168.545L146.399 162.342L148.47 157.952C150.528 153.592 150.569 153.559 154.597 153.056C156.827 152.777 161.01 152.635 163.894 152.741L169.138 152.934L169.362 146.594L169.588 140.256H160.017H150.446L148.933 136.603L147.421 132.952L153.48 127.159L159.54 121.367L154.827 116.666L150.113 111.965L144.719 117.488L139.324 123.011L134.866 120.812C132.413 119.603 129.797 118.437 129.052 118.221C127.857 117.873 127.696 116.716 127.696 108.501V99.1758H121.499H115.302V108.13ZM179.595 142.581V184.436H188.116H196.636V142.581V100.726H188.116H179.595V142.581ZM301.723 109.766C301.653 109.836 301.703 114.457 301.833 120.036L302.069 130.179H312.896C324.783 130.179 328.05 129.396 330.266 126.011C333.395 121.233 332.082 113.537 327.758 111.299C326.14 110.463 322.253 110.074 313.687 109.891C307.176 109.753 301.793 109.696 301.723 109.766ZM424.759 120.488C424.333 120.633 422.638 120.978 420.993 121.253C414.992 122.262 412.454 127.625 416.204 131.377C419.864 135.04 430.121 133.174 433.338 128.261C434.022 127.217 434.77 124.955 435.001 123.233L435.42 120.103L430.477 120.164C427.759 120.198 425.185 120.344 424.759 120.488ZM609.891 120.488C609.465 120.633 607.77 120.978 606.125 121.253C600.124 122.262 597.586 127.625 601.336 131.377C604.996 135.04 615.253 133.174 618.47 128.261C619.154 127.217 619.902 124.955 620.133 123.233L620.552 120.103L615.609 120.164C612.891 120.198 610.317 120.344 609.891 120.488ZM113.908 132.25C107.534 135.393 103.908 143 105.416 150.07C106.973 157.373 116.05 163.588 123.175 162.228C130.212 160.884 134.663 156.42 136.31 149.053C137.091 145.562 137.032 144.46 135.899 141.493C134.126 136.848 132.032 134.323 128.428 132.483C124.701 130.581 117.527 130.465 113.908 132.25ZM283.889 164.107C283.685 164.438 283.538 183.621 283.562 206.737L283.604 248.768H292.794H301.983V235.764V222.76L305.344 218.939L308.704 215.118L312.122 219.831C314.002 222.423 319.373 229.99 324.06 236.646L332.581 248.749L344.071 248.758L355.562 248.768L353.301 245.861C351.548 243.608 333.325 217.778 323.582 203.736L322.184 201.722L338.41 183.196C347.335 173.008 354.641 164.41 354.647 164.09C354.652 163.769 350.014 163.508 344.34 163.508H334.023L320.521 179.463C313.094 188.238 305.898 196.696 304.53 198.259L302.042 201.1L302.013 182.304L301.983 163.508H293.121C288.246 163.508 284.092 163.778 283.889 164.107ZM359.614 166.144C357.339 168.42 356.981 169.293 356.981 172.559C356.981 174.731 357.495 177.075 358.19 178.067C359.789 180.352 363.305 182.11 366.276 182.11C373.409 182.11 377.764 174.649 374.414 168.167C372.696 164.843 370.293 163.508 366.026 163.508C362.762 163.508 361.89 163.867 359.614 166.144ZM391.623 172.509C391.315 172.816 391.064 176.497 391.064 180.69V188.311H386.029H380.994V195.674V203.038H385.961H390.928L391.19 219.121L391.451 235.204L393.755 239.366C396.467 244.265 399.685 246.933 404.708 248.446C408.489 249.585 416.971 249.9 421.177 249.059L423.597 248.574V241.308V234.041H417.737C414.513 234.041 411.218 233.689 410.412 233.257C408.088 232.013 407.34 227.534 407.335 214.858L407.33 203.038H415.077H422.823V195.674V188.311H415.077H407.33L407.329 180.366L407.327 172.422L399.755 172.185C395.589 172.055 391.93 172.201 391.623 172.509ZM447.109 187.539C441.193 189.47 435.347 194.522 432.566 200.107C429.218 206.83 429.291 206.913 438.682 206.913H446.796L447.938 204.703C450.18 200.365 455.768 198.379 461.432 199.905C465.14 200.904 466.931 203.152 467.519 207.547L467.924 210.565L457.186 210.989C444.734 211.479 440.744 212.643 435.39 217.347C433.468 219.036 431.256 221.826 430.474 223.547C426.477 232.353 431.309 243.657 441.124 248.463C444.619 250.173 446.499 250.573 450.981 250.559C457.483 250.539 460.901 249.279 465.341 245.265L468.525 242.387V245.578V248.768H476.323H484.121L483.875 225.709L483.63 202.65L481.341 198.517C478.612 193.586 475.802 191.068 470.074 188.418C464.189 185.695 453.957 185.305 447.109 187.539ZM357.755 218.54V248.768H366.082L374.41 248.769L374.198 218.54L373.987 188.311H365.871H357.755V218.54ZM453.246 223.943C447.606 225.284 444.936 228.93 446.896 232.613C448.447 235.526 450.053 236.315 454.476 236.342C461.678 236.384 467.75 231.269 467.75 225.159C467.75 223.213 467.68 223.191 461.747 223.269C458.445 223.313 454.62 223.616 453.246 223.943Z" fill="black"/>
</svg>
